<svg width="258" height="35" viewBox="0 0 258 35" fill="none" xmlns="http://www.w3.org/2000/svg">
<path d="M12.635 10.325C5.795 10.325 0.125 15.095 0.125 22.205C0.125 29.36 5.795 34.13 12.635 34.13C19.34 34.13 25.01 29.36 25.01 22.205C25.01 15.095 19.34 10.325 12.635 10.325ZM12.635 28.055C9.71 28.055 7.055 25.76 7.055 22.205C7.055 18.695 9.71 16.355 12.635 16.355C15.425 16.355 18.08 18.695 18.08 22.205C18.08 25.76 15.425 28.055 12.635 28.055ZM42.8543 10.235C40.0193 10.235 37.6343 11.27 35.9243 13.07V10.91H28.7243V33.5H35.9243V23.015C35.9243 18.65 37.7693 16.715 40.6043 16.715C42.8993 16.715 44.4743 18.515 44.4743 21.17V33.5H51.6293V19.64C51.6293 13.97 48.1193 10.235 42.8543 10.235ZM63.7416 33.5V1.1H56.5416V33.5H63.7416ZM72.9382 0.154997C70.5082 0.154997 68.7982 2.045 68.7982 4.25C68.7982 6.545 70.5082 8.255 72.9382 8.255C75.3682 8.255 77.1232 6.545 77.1232 4.25C77.1232 2.045 75.3682 0.154997 72.9382 0.154997ZM76.5382 33.5V10.91H69.3382V33.5H76.5382ZM96.2478 10.235C93.4128 10.235 91.0278 11.27 89.3178 13.07V10.91H82.1178V33.5H89.3178V23.015C89.3178 18.65 91.1628 16.715 93.9978 16.715C96.2928 16.715 97.8678 18.515 97.8678 21.17V33.5H105.023V19.64C105.023 13.97 101.513 10.235 96.2478 10.235ZM132.075 22.205C131.94 14.825 126.81 10.235 120.42 10.235C113.85 10.235 108.45 15.095 108.45 22.205C108.45 29.36 113.85 34.175 120.375 34.175C125.55 34.175 129.645 31.88 131.58 27.11L125.19 25.805C123.975 28.01 122.04 28.415 120.375 28.415C117.945 28.415 116.1 26.75 115.515 24.05H132.075V22.205ZM120.42 16.085C122.49 16.085 124.29 17.21 124.965 19.64H115.65C116.325 17.345 118.395 16.085 120.42 16.085ZM144.748 27.605C145.513 32.24 150.058 34.175 155.368 34.175C161.308 34.175 165.628 31.565 165.628 26.57C165.628 23.24 163.648 20.675 159.373 19.775L154.063 18.695C152.623 18.38 152.353 17.75 152.353 17.12C152.353 16.31 152.983 15.365 154.918 15.365C157.123 15.365 158.473 16.625 158.698 18.02L165.268 16.715C164.368 12.8 160.633 10.235 155.008 10.235C149.293 10.235 145.288 13.25 145.288 17.885C145.288 21.44 147.673 23.69 151.858 24.455L156.448 25.355C158.113 25.67 158.698 26.255 158.698 27.02C158.698 28.01 157.663 28.82 155.773 28.82C153.838 28.82 152.083 28.1 151.768 26.165L144.748 27.605ZM184.512 26.84C183.567 27.38 182.217 27.74 181.227 27.74C179.337 27.74 178.212 26.795 178.212 24.455V16.625H184.872V10.91H178.212V4.25H171.012V10.91H166.917V16.625H171.012V25.175C171.012 31.115 174.387 34.175 180.012 34.175C182.577 34.175 184.422 33.455 186.177 32.51L184.512 26.84ZM199.49 10.325C192.65 10.325 186.98 15.095 186.98 22.205C186.98 29.36 192.65 34.13 199.49 34.13C206.195 34.13 211.865 29.36 211.865 22.205C211.865 15.095 206.195 10.325 199.49 10.325ZM199.49 28.055C196.565 28.055 193.91 25.76 193.91 22.205C193.91 18.695 196.565 16.355 199.49 16.355C202.28 16.355 204.935 18.695 204.935 22.205C204.935 25.76 202.28 28.055 199.49 28.055ZM230.565 10.595C226.875 10.595 224.4 12.53 222.78 15.23V10.91H215.58V33.5H222.78V26.435C222.78 20.585 225.525 17.975 230.565 17.975H231.87L232.185 10.775C231.645 10.64 231.195 10.595 230.565 10.595ZM257.231 22.205C257.096 14.825 251.966 10.235 245.576 10.235C239.006 10.235 233.606 15.095 233.606 22.205C233.606 29.36 239.006 34.175 245.531 34.175C250.706 34.175 254.801 31.88 256.736 27.11L250.346 25.805C249.131 28.01 247.196 28.415 245.531 28.415C243.101 28.415 241.256 26.75 240.671 24.05H257.231V22.205ZM245.576 16.085C247.646 16.085 249.446 17.21 250.121 19.64H240.806C241.481 17.345 243.551 16.085 245.576 16.085Z" fill="#1F2223"/>
</svg>
