<svg width="30" height="32" viewBox="0 0 30 32" fill="none" xmlns="http://www.w3.org/2000/svg">
<path fill-rule="evenodd" clip-rule="evenodd" d="M7.17373 4.26453C8.57594 1.98578 11.0712 0 15.0001 0C18.929 0 21.4242 1.98578 22.8265 4.26453C24.1722 6.45151 24.5899 8.98488 24.5899 10.6667H27.2682C28.6292 10.6667 29.6414 11.8119 29.3497 13.0217L25.141 30.4763C24.9265 31.366 24.0604 32 23.0595 32H6.94071C5.93976 32 5.07371 31.366 4.85917 30.4763L0.650471 13.0217C0.358754 11.8119 1.37099 10.6667 2.73201 10.6667H5.41028C5.41028 8.98488 5.82798 6.45151 7.17373 4.26453ZM19.1077 6.15972C19.9996 7.6091 20.3278 9.43936 20.3278 10.6667H9.67242C9.67242 9.43936 10.0006 7.6091 10.8925 6.15971C11.7279 4.8021 12.962 3.87879 15.0001 3.87879C17.0382 3.87879 18.2723 4.8021 19.1077 6.15972ZM15.0001 22.8414C17.3412 22.8414 19.4352 21.8782 20.8297 20.3636L23.5244 22.8159C21.4357 24.9537 18.3907 26.3004 15.0001 26.3004C11.6095 26.3004 8.5645 24.9537 6.47581 22.8159L9.17049 20.3636C10.565 21.8782 12.6589 22.8414 15.0001 22.8414Z" fill="#F9D262"/>
</svg>
